<?xml version="1.0" encoding="UTF-8" standalone="no"?>
<svg width="360px" height="25px" viewBox="0 0 360 25" version="1.1" xmlns="http://www.w3.org/2000/svg" xmlns:xlink="http://www.w3.org/1999/xlink" xmlns:sketch="http://www.bohemiancoding.com/sketch/ns">
    <!-- Generator: Sketch 3.3.2 (12043) - http://www.bohemiancoding.com/sketch -->
    <title>Imported Layers Copy 6</title>
    <desc>Created with Sketch.</desc>
    <defs></defs>
    <g id="Page-4" stroke="none" stroke-width="1" fill="none" fill-rule="evenodd" sketch:type="MSPage">
        <g id="Event:-Food-Copy-3" sketch:type="MSArtboardGroup" transform="translate(-49.000000, -35.000000)" fill="#FFFFFF">
            <g id="Imported-Layers-Copy-6" sketch:type="MSLayerGroup" transform="translate(49.000000, 35.000000)">
                <path d="M5.33819138,3.69058312 C5.33819138,2.67005437 4.94453918,2.17625013 4.01295933,2.17625013 C3.08090176,2.17625013 2.68677182,2.67005437 2.68677182,3.69058312 L2.68677182,21.1378938 C2.68677182,22.1579837 3.08090176,22.6517879 4.01295933,22.6517879 C4.94453918,22.6517879 5.33819138,22.1579837 5.33819138,21.1378938 L5.33819138,17.8125064 L7.70297099,17.8125064 L7.70297099,21.2032955 C7.70297099,23.2114327 6.48475119,24.4953237 4.01295933,24.4953237 C1.54068974,24.4953237 0.322469946,23.2114327 0.322469946,21.2032955 L0.322469946,3.62474256 C0.322469946,1.61660533 1.54068974,0.332714321 4.01295933,0.332714321 C6.48475119,0.332714321 7.70297099,1.61660533 7.70297099,3.62474256 L7.70297099,6.75173045 L5.33819138,6.75173045 L5.33819138,3.69058312" id="Fill-1" sketch:type="MSShapeGroup"></path>
                <path d="M26.7650056,24.297802 L21.3546765,24.297802 L21.3546765,0.530674952 L31.3507671,0.530674952 C35.0412565,0.530674952 37.4060361,2.70297465 37.4060361,6.75173045 C37.4060361,9.78083536 36.1161563,12.0518959 32.6048169,12.5786204 L32.6048169,12.644461 C33.7872067,12.7761421 37.2980683,13.0390654 37.2980683,17.3187022 C37.2980683,18.8334741 37.4060361,23.3101935 37.907656,24.297802 L32.6048169,24.297802 C31.888217,22.8493096 32.031537,21.2362158 32.031537,19.6889625 C32.031537,16.8582571 32.3176992,14.4550765 28.1618976,14.4550765 L26.7650056,14.4550765 L26.7650056,24.297802 L26.7650056,24.297802 Z M26.7650056,10.8009252 L29.1651374,10.8009252 C31.3149371,10.8009252 31.924047,8.82570824 31.924047,7.31181419 C31.924047,5.0403147 30.8854549,4.18438736 29.1651374,4.18438736 L26.7650056,4.18438736 L26.7650056,10.8009252 L26.7650056,10.8009252 Z" id="Fill-2" sketch:type="MSShapeGroup"></path>
                <path d="M56.3601029,0.991119968 L56.3601029,3.46014115 L53.9594933,3.46014115 L53.9594933,11.1959686 L56.3601029,11.1959686 L56.3601029,13.6649897 L53.9594933,13.6649897 L53.9594933,21.8287808 L56.3601029,21.8287808 L56.3601029,24.297802 L50.9502515,24.297802 L50.9502515,0.991119968 L56.3601029,0.991119968" id="Fill-3" sketch:type="MSShapeGroup"></path>
                <path d="M75.5649797,0.991119968 L77.8222694,24.297802 L74.6333999,24.297802 L74.4184199,21.269136 L72.2327903,21.269136 L72.0536403,24.297802 L68.9010786,24.297802 L71.1941982,0.991119968 L75.5649797,0.991119968 L75.5649797,0.991119968 Z M74.20344,18.8001149 L73.3793501,5.76412198 L72.448248,18.8001149 L74.20344,18.8001149 L74.20344,18.8001149 Z" id="Fill-4" sketch:type="MSShapeGroup"></path>
                <path d="M92.7633769,2.37377183 L90.1119573,2.37377183 L90.1119573,0.530674952 L97.7790983,0.530674952 L97.7790983,2.37377183 L95.1276787,2.37377183 L95.1276787,24.297802 L92.7633769,24.297802 L92.7633769,2.37377183" id="Fill-5" sketch:type="MSShapeGroup"></path>
                <path d="M110.427564,0.991119968 L113.437283,0.991119968 L113.437283,24.297802 L110.427564,24.297802 L110.427564,0.991119968 Z" id="Fill-6" sketch:type="MSShapeGroup"></path>
                <path d="M128.055443,0.530674952 L133.680275,0.530674952 L133.716105,17.8125064 L133.787765,17.8125064 L142.278995,0.530674952 L147.617665,0.530674952 L135.292624,24.297802 L128.951193,24.297802 L128.055443,0.530674952" id="Fill-7" sketch:type="MSShapeGroup"></path>
                <path d="M162.416408,0.991119968 L162.416408,3.46014115 L160.015798,3.46014115 L160.015798,11.1959686 L162.416408,11.1959686 L162.416408,13.6649897 L160.015798,13.6649897 L160.015798,21.8287808 L162.416408,21.8287808 L162.416408,24.297802 L157.006556,24.297802 L157.006556,0.991119968 L162.416408,0.991119968" id="Fill-8" sketch:type="MSShapeGroup"></path>
                <path d="M192.513603,2.37377183 L189.862183,2.37377183 L189.862183,0.530674952 L197.529324,0.530674952 L197.529324,2.37377183 L194.877904,2.37377183 L194.877904,24.297802 L192.513603,24.297802 L192.513603,2.37377183" id="Fill-9" sketch:type="MSShapeGroup"></path>
                <path d="M211.359702,24.297802 L211.359702,0.530674952 L225.476242,0.530674952 L225.476242,4.18438736 L216.769553,4.18438736 L216.769553,10.0437587 L224.795472,10.0437587 L224.795472,13.6974711 L216.769553,13.6974711 L216.769553,20.6440896 L225.762404,20.6440896 L225.762404,24.297802 L211.359702,24.297802" id="Fill-10" sketch:type="MSShapeGroup"></path>
                <path d="M245.899816,0.530674952 L247.977478,0.530674952 L247.977478,24.297802 L244.609458,24.297802 L241.636047,3.16385861 L241.563909,3.16385861 L241.563909,24.297802 L239.486247,24.297802 L239.486247,0.530674952 L242.925449,0.530674952 L245.827678,20.8740927 L245.899816,20.8740927 L245.899816,0.530674952" id="Fill-11" sketch:type="MSShapeGroup"></path>
                <path d="M266.751917,24.6928454 C260.052186,24.6928454 259.658056,21.0716143 260.876276,16.956579 L266.286605,16.956579 C265.784985,19.2280785 265.426685,21.1378938 268.400097,21.1378938 C270.227904,21.1378938 271.373986,20.0510856 271.768116,18.4379918 C272.736004,14.158794 261.915346,13.8954317 263.563525,6.81800995 C264.423445,3.09801804 267.039035,0.135192626 273.631276,0.135192626 C278.898285,0.135192626 281.012255,2.30793126 279.506917,7.2788939 L274.240386,7.2788939 C274.634516,5.50119865 274.742006,3.69058312 272.556854,3.69058312 C270.801184,3.69058312 269.547134,4.57943075 269.188834,6.22544487 C268.149765,10.7355236 279.112787,10.3400412 277.393425,17.8125064 C275.960226,23.9685992 270.872366,24.6928454 266.751917,24.6928454" id="Fill-12" sketch:type="MSShapeGroup"></path>
                <path d="M292.191691,0.991119968 L295.20141,0.991119968 L295.20141,24.297802 L292.191691,24.297802 L292.191691,0.991119968 Z" id="Fill-13" sketch:type="MSShapeGroup"></path>
                <path d="M316.090297,21.1703752 C316.090297,22.9809907 315.373697,24.297802 312.686447,24.297802 L311.504057,24.297802 C308.816808,24.297802 308.100208,22.9809907 308.100208,21.1703752 L308.100208,4.11854679 C308.100208,2.30793126 308.816808,0.991119968 311.504057,0.991119968 L312.686447,0.991119968 C315.373697,0.991119968 316.090297,2.30793126 316.090297,4.11854679 L316.090297,21.1703752 L316.090297,21.1703752 Z M311.109927,21.9275417 L313.080577,21.9275417 L313.080577,3.55846306 L311.109927,3.55846306 L311.109927,21.9275417 Z" id="Fill-14" sketch:type="MSShapeGroup"></path>
                <path d="M336.047126,0.530674952 L338.125265,0.530674952 L338.125265,24.297802 L334.757246,24.297802 L331.783356,3.16385861 L331.711696,3.16385861 L331.711696,24.297802 L329.633557,24.297802 L329.633557,0.530674952 L333.072758,0.530674952 L335.975466,20.8740927 L336.047126,20.8740927 L336.047126,0.530674952" id="Fill-15" sketch:type="MSShapeGroup"></path>
                <path d="M359.658614,13.5991492 L359.658614,21.1703752 C359.658614,22.9809907 358.942014,24.297802 356.255242,24.297802 L355.072375,24.297802 C352.385603,24.297802 351.669003,22.9809907 351.669003,21.1703752 L351.669003,16.1010906 L354.678722,16.1010906 L354.678722,21.9275417 L356.648894,21.9275417 L356.648894,13.928352 L354.248763,13.928352 C352.206453,13.928352 351.669003,12.9736638 351.669003,11.591012 L351.669003,4.11854679 C351.669003,2.30793126 352.385603,0.991119968 355.072375,0.991119968 L356.255242,0.991119968 C358.942014,0.991119968 359.658614,2.30793126 359.658614,4.11854679 L359.658614,9.08950943 L356.648894,9.08950943 L356.648894,3.55890199 L354.678722,3.55890199 L354.678722,11.1630483 L357.294312,11.1630483 C359.085812,11.1630483 359.658614,12.0848162 359.658614,13.5991492" id="Fill-16" sketch:type="MSShapeGroup"></path>
            </g>
        </g>
    </g>
</svg>