<?xml version="1.0" encoding="UTF-8" standalone="no"?>
<svg width="290px" height="40px" viewBox="0 0 290 40" version="1.1" xmlns="http://www.w3.org/2000/svg" xmlns:xlink="http://www.w3.org/1999/xlink" xmlns:sketch="http://www.bohemiancoding.com/sketch/ns">
    <!-- Generator: Sketch 3.3.2 (12043) - http://www.bohemiancoding.com/sketch -->
    <title>+ + IDEO_LOGO_2014_final Copy 2 + sundance_logo_blk_CMYK Copy 2 Copy</title>
    <desc>Created with Sketch.</desc>
    <defs></defs>
    <g id="Page-4" stroke="none" stroke-width="1" fill="none" fill-rule="evenodd" sketch:type="MSPage">
        <g id="Event:-Food-Copy-3" sketch:type="MSArtboardGroup" transform="translate(-90.000000, -6668.000000)" fill="#FFFFFF">
            <g id="+-+-IDEO_LOGO_2014_final-Copy-2-+-sundance_logo_blk_CMYK-Copy-2-Copy" sketch:type="MSLayerGroup" transform="translate(90.000000, 6668.000000)">
                <text id="+" sketch:type="MSTextLayer" font-family="Gotham HTF" font-size="14.2336957" font-weight="260" sketch:alignment="middle" line-spacing="32">
                    <tspan x="109.314783" y="19.3872856">+</tspan>
                </text>
                <g id="IDEO_LOGO_2014_final-Copy-2" transform="translate(0.011358, 4.562400)" sketch:type="MSShapeGroup">
                    <path d="M20.6821248,4.68662528 L20.6821248,1.02254654 L12.1812284,1.02254654 L8.55697908,1.02254654 L0.0558626556,1.02254654 L0.0558626556,4.68662528 L8.51361839,4.68662528 L8.51361839,18.2096948 L0.0558626556,18.2096948 L0.0558626556,21.8742186 L8.55697908,21.8742186 L12.1812284,21.8742186 L20.6821248,21.8742186 L20.6821248,18.2096948 L12.2239288,18.2096948 L12.2239288,4.68662528 L20.6821248,4.68662528 Z" id="Fill-1"></path>
                    <path d="M72.1271624,4.67218436 L72.1271624,1.02256879 L66.6278384,1.02256879 L51.3347211,1.02256879 L51.3347211,4.67218436 L51.3347211,18.2244027 L51.3347211,21.8742408 L66.7753087,21.8742408 L72.1271624,21.8742408 L72.1271624,18.2244027 L55.0652811,18.2244027 L55.0652811,13.2728788 L68.3831759,13.2728788 L68.3831759,9.62304074 L55.0652811,9.62304074 L55.0652811,4.67218436 L72.1271624,4.67218436 Z" id="Fill-2"></path>
                    <g id="Group-7" transform="translate(25.972393, 0.000000)">
                        <path d="M10.0508979,18.2849701 L10.0508979,18.2825224 L4.09507602,18.2825224 L4.09507602,18.2571563 L3.86418585,18.2571563 L3.85582186,18.2571563 L3.85582186,4.62149649 L3.8619848,4.62149649 L3.8619848,4.6088134 L4.20050633,4.6088134 L4.20050633,4.60925842 L10.1087855,4.60925842 C14.1706037,4.70694048 16.8131846,7.57287442 16.8131846,11.4728142 C16.8131846,15.39456 14.1455117,18.2157693 10.0508979,18.2849701 M10.235566,1.03062367 L10.235566,1.02239078 L9.87789537,1.02239078 L9.18258359,1.02239078 L7.21924676,1.02239078 L3.46623596,1.02239078 L0.156956894,1.02239078 L0.156956894,3.11866125 L0.156956894,18.9340329 L0.156956894,21.8740628 L3.26572028,21.8740628 L7.21924676,21.8740628 L9.18258359,21.8740628 L9.87789537,21.8740628 L10.0350504,21.8740628 L10.0350504,21.8705026 C16.4319627,21.7970742 20.8389056,17.2687651 20.8389056,11.4185217 C20.8389056,5.62991362 16.5237465,1.19283375 10.235566,1.03062367" id="Fill-3"></path>
                        <path d="M60.8040135,18.8763359 C56.7067584,18.8763359 53.3833926,15.550028 53.3833926,11.4467137 C53.3833926,7.34807217 56.7067584,4.02220923 60.8040135,4.02220923 C64.9012685,4.02220923 68.2248544,7.34807217 68.2248544,11.4467137 C68.2248544,15.550028 64.9012685,18.8763359 60.8040135,18.8763359 M60.8040135,0.106248716 C54.5446667,0.106248716 49.4710258,5.18460356 49.4710258,11.4467137 C49.4710258,17.7121615 54.5446667,22.7905164 60.8040135,22.7905164 C67.0631401,22.7905164 72.1383218,17.7121615 72.1383218,11.4467137 C72.1383218,5.18460356 67.0631401,0.106248716 60.8040135,0.106248716" id="Fill-5"></path>
                    </g>
                </g>
                <g id="sundance_logo_blk_CMYK-Copy-2" transform="translate(128.905380, 0.562400)" sketch:type="MSShapeGroup">
                    <path d="M6.57188737,32.184906 L8.06576087,32.184906 L8.06576087,38.5041368 L6.57188737,38.5041368 L6.57188737,32.184906 Z M6.57188737,29.6079316 L8.06576087,29.6079316 L8.06576087,31.0169744 L6.57188737,31.0169744 L6.57188737,29.6079316 Z" id="Fill-4"></path>
                    <path d="M9.52285239,38.5041368 L9.52285239,32.184906 L10.8963963,32.184906 L10.8963963,32.8647863 C11.4512786,32.4758291 12.090234,32.0624957 12.8242971,32.0624957 C14.0785623,32.0624957 14.6807357,32.8896923 14.6807357,34.1768547 L14.6807357,38.5041368 L13.1868622,38.5041368 L13.1868622,34.3972991 C13.1868622,33.5462564 12.9209811,33.2781197 12.4144408,33.2781197 C11.7649763,33.2781197 11.2705215,33.6554188 11.0167259,33.945812 L11.0167259,38.5041368 L9.52285239,38.5041368" id="Fill-5"></path>
                    <path d="M19.0267883,33.8498974 C18.7257016,33.5213504 18.3295073,33.1822051 17.8597489,33.1822051 C17.282272,33.1822051 17.0158654,33.4243761 17.0158654,33.8006154 C17.0158654,34.881641 20.1475876,34.4206154 20.1475876,36.729453 C20.1475876,38.0415214 19.1597289,38.6260171 17.8466125,38.6260171 C16.8477193,38.6260171 16.0280068,38.1771795 15.4731245,37.349453 L16.4735941,36.5964444 C16.8235483,37.0823761 17.2927811,37.5073675 17.9306856,37.5073675 C18.4624478,37.5073675 18.8234366,37.2148547 18.8234366,36.7919829 C18.8234366,35.7083077 15.6901381,36.096735 15.6901381,33.8975897 C15.6901381,32.7195897 16.6779967,32.0624957 17.7625394,32.0624957 C18.5953884,32.0624957 19.4261355,32.3788547 19.9684068,33.0237607 L19.0267883,33.8498974" id="Fill-6"></path>
                    <path d="M21.3282888,32.184906 L21.3282888,30.0949231 L22.8211114,30.0949231 L22.8211114,32.184906 L24.0506802,32.184906 L24.0506802,33.4015897 L22.8211114,33.4015897 L22.8211114,36.9726838 C22.8211114,37.3134188 22.9892576,37.4109231 23.3639082,37.4109231 C23.5919565,37.4109231 23.8331411,37.336735 24.0506802,37.2901026 L24.0506802,38.5285128 C23.6402985,38.576735 23.2798352,38.6260171 22.8694534,38.6260171 C21.7628416,38.6260171 21.3282888,38.0658974 21.3282888,37.1671624 L21.3282888,33.4015897 L20.4597089,33.4015897 L20.4597089,32.184906 L21.3282888,32.184906" id="Fill-7"></path>
                    <path d="M25.0138424,32.184906 L26.5061395,32.184906 L26.5061395,38.5041368 L25.0138424,38.5041368 L25.0138424,32.184906 Z M25.0138424,29.6079316 L26.5061395,29.6079316 L26.5061395,31.0169744 L25.0138424,31.0169744 L25.0138424,29.6079316 Z" id="Fill-8"></path>
                    <path d="M28.2054666,32.184906 L28.2054666,30.0949231 L29.6993401,30.0949231 L29.6993401,32.184906 L30.9283834,32.184906 L30.9283834,33.4015897 L29.6993401,33.4015897 L29.6993401,36.9726838 C29.6993401,37.3134188 29.8690626,37.4109231 30.2421369,37.4109231 C30.471236,37.4109231 30.7113697,37.336735 30.9283834,37.2901026 L30.9283834,38.5285128 C30.5190526,38.576735 30.1580638,38.6260171 29.7482075,38.6260171 C28.6394938,38.6260171 28.2054666,38.0658974 28.2054666,37.1671624 L28.2054666,33.4015897 L27.3379375,33.4015897 L27.3379375,32.184906 L28.2054666,32.184906" id="Fill-9"></path>
                    <path d="M36.8923173,32.184906 L36.8923173,38.5041368 L35.5177225,38.5041368 L35.5177225,37.8226667 C34.9638911,38.2126838 34.3249357,38.6260171 33.5908726,38.6260171 C32.3371329,38.6260171 31.7349595,37.7993504 31.7349595,36.5105983 L31.7349595,32.184906 L33.228833,32.184906 L33.228833,36.2928034 C33.228833,37.1422564 33.4947141,37.4109231 34.0007289,37.4109231 C34.6507189,37.4109231 35.1446482,37.033094 35.3984438,36.741641 L35.3984438,32.184906 L36.8923173,32.184906" id="Fill-10"></path>
                    <path d="M38.432431,32.184906 L38.432431,30.0949231 L39.9263045,30.0949231 L39.9263045,32.184906 L41.1558732,32.184906 L41.1558732,33.4015897 L39.9263045,33.4015897 L39.9263045,36.9726838 C39.9263045,37.3134188 40.0949761,37.4109231 40.4696268,37.4109231 C40.6971495,37.4109231 40.9388596,37.336735 41.1558732,37.2901026 L41.1558732,38.5285128 C40.746017,38.576735 40.3850282,38.6260171 39.975172,38.6260171 C38.8654073,38.6260171 38.432431,38.0658974 38.432431,37.1671624 L38.432431,33.4015897 L37.5654274,33.4015897 L37.5654274,32.184906 L38.432431,32.184906" id="Fill-11"></path>
                    <path d="M45.3842236,34.5674017 C45.3595271,33.6909231 44.9013288,33.1822051 44.1793513,33.1822051 C43.4557974,33.1822051 42.99865,33.6909231 42.974479,34.5674017 L45.3842236,34.5674017 L45.3842236,34.5674017 Z M42.974479,35.5874872 C42.99865,36.9000855 43.5766524,37.4109231 44.2755099,37.4109231 C44.9743673,37.4109231 45.3001505,37.0945641 45.6732248,36.6568547 L46.757242,37.336735 C46.1792396,38.236 45.3353561,38.6260171 44.1304838,38.6260171 C42.5047207,38.6260171 41.4800801,37.349453 41.4800801,35.3442564 C41.4800801,33.338 42.5047207,32.0624957 44.2035223,32.0624957 C45.8429473,32.0518974 46.757242,33.4471624 46.757242,34.9669573 L46.757242,35.5874872 L42.974479,35.5874872 L42.974479,35.5874872 Z" id="Fill-12"></path>
                    <path d="M137.22723,12.0152991 C136.448503,10.2824786 135.590958,8.90205128 133.24164,8.90205128 C130.54342,8.90205128 129.253424,11.030188 129.253424,15.6033504 C129.253424,20.1749231 130.54342,22.3030598 133.400854,22.3030598 C135.503732,22.3030598 136.722266,20.8484444 137.699615,19.0324274 L141.371507,21.1234701 C139.417333,24.7936581 136.956094,26.2853675 133.24164,26.2509231 C127.728548,26.2509231 124.407136,22.1059316 124.407136,15.6033504 C124.407136,9.09864957 127.728548,4.95789744 133.24164,4.95789744 C137.069593,4.95789744 140.120395,7.01078632 141.25433,10.4398632 L137.22723,12.0152991" id="Fill-13"></path>
                    <path d="M156.619211,13.0772479 C156.543019,10.242735 155.055977,8.58834188 152.709812,8.58834188 C150.365225,8.58834188 148.880809,10.242735 148.801991,13.0772479 L156.619211,13.0772479 L156.619211,13.0772479 Z M148.801991,16.3913333 C148.880809,20.6513162 150.755639,22.3030598 153.025086,22.3030598 C155.28928,22.3030598 156.346499,21.2819145 157.557151,19.8617436 L161.074033,22.0704274 C159.20183,24.9891966 156.466828,26.2509231 152.552175,26.2509231 C147.275013,26.2509231 143.953601,22.1059316 143.953601,15.6033504 C143.953601,9.09864957 147.275013,4.95789744 152.788631,4.95789744 C158.105202,4.91815385 161.074033,9.45210256 161.074033,14.3840171 L161.074033,16.3913333 L148.801991,16.3913333 L148.801991,16.3913333 Z" id="Fill-14"></path>
                    <path d="M12.0087882,10.7519829 C11.0303878,9.69268376 9.74039148,8.58834188 8.21499058,8.58834188 C6.3396355,8.58834188 5.47946282,9.37420513 5.47946282,10.5945983 C5.47946282,14.105812 15.642847,12.6061538 15.642847,20.101265 C15.642847,24.3559487 12.4433409,26.2509231 8.17820861,26.2509231 C4.93246236,26.2509231 2.27575312,24.7936581 0.471860147,22.1059316 L3.72075913,19.6651453 C4.85522022,21.2427009 6.37746838,22.6204786 8.45092066,22.6204786 C10.1702151,22.6204786 11.3467127,21.6761709 11.3467127,20.2968034 C11.3467127,16.7829402 1.17754854,18.0473162 1.17754854,10.9146667 C1.17754854,7.08974359 4.38441099,4.95789744 7.90129291,4.95789744 C10.6005642,4.95789744 13.298259,5.98275214 15.0590645,8.07432479 L12.0087882,10.7519829" id="Fill-15"></path>
                    <path d="M36.0132282,5.35374359 L36.0132282,25.8524274 L31.5568296,25.8524274 L31.5568296,23.6469231 C29.7634458,24.9086496 27.6894681,26.2509231 25.3044199,26.2509231 C21.2373848,26.2509231 19.2847876,23.5674359 19.2847876,19.3911795 L19.2847876,5.35374359 L24.1289732,5.35374359 L24.1289732,18.6821538 C24.1289732,21.4408889 24.9896714,22.3030598 26.6311982,22.3030598 C28.7424834,22.3030598 30.3467028,21.0847863 31.1664153,20.138359 L31.1664153,5.35374359 L36.0132282,5.35374359" id="Fill-16"></path>
                    <path d="M40.6036182,25.8524274 L40.6036182,5.35374359 L45.0610677,5.35374359 L45.0610677,7.56242735 C46.860757,6.29752137 48.9310565,4.95789744 51.3182065,4.95789744 C55.3831398,4.95789744 57.3373134,7.64297436 57.3373134,11.8149915 L57.3373134,25.8524274 L52.4920768,25.8524274 L52.4920768,12.5271966 C52.4920768,9.76793162 51.6287514,8.90205128 49.9898519,8.90205128 C47.8780412,8.90205128 46.2743473,10.1266838 45.4520075,11.0725812 L45.4520075,25.8524274 L40.6036182,25.8524274" id="Fill-17"></path>
                    <path d="M94.534921,16.0384103 C91.2933785,16.6690085 87.7355109,17.3398803 87.7355109,20.2178462 C87.7355109,21.7530085 88.7112841,22.6204786 90.0816752,22.6204786 C91.6044488,22.6204786 93.5255187,21.3232479 94.534921,20.4531282 L94.534921,16.0384103 L94.534921,16.0384103 Z M95.0482923,25.8524274 L94.730391,24.0825128 C92.7767428,25.420547 90.9402715,26.2509231 88.3991628,26.2509231 C84.7230674,26.2509231 82.8871216,23.6055897 82.8871216,20.8087009 C82.8871216,16.1560513 86.6404591,13.708906 94.534921,12.7677778 L94.534921,11.030188 C94.534921,9.45210256 93.2838086,8.58834188 91.5692432,8.58834188 C89.3024229,8.58834188 88.0486831,9.80661538 87.1102174,11.1091453 L83.9811225,8.70492308 C85.2306587,6.53704274 88.5983109,4.88 91.5692432,4.95789744 C97.0402988,5.07977778 99.3880394,7.08974359 99.3880394,13.2388718 L99.3880394,22.8997436 C99.3880394,23.9208889 99.4637052,24.949453 99.7784538,25.8524274 L95.0482923,25.8524274 L95.0482923,25.8524274 Z" id="Fill-18"></path>
                    <path d="M104.2317,25.8524274 L104.2317,5.35374359 L108.688098,5.35374359 L108.688098,7.56242735 C110.487787,6.29752137 112.560714,4.95789744 114.946288,4.95789744 C119.012798,4.95789744 120.96592,7.64297436 120.96592,11.8149915 L120.96592,25.8524274 L116.118582,25.8524274 L116.118582,12.5271966 C116.118582,9.76793162 115.258409,8.90205128 113.61373,8.90205128 C111.503495,8.90205128 109.904005,10.1266838 109.081665,11.0725812 L109.081665,25.8524274 L104.2317,25.8524274" id="Fill-19"></path>
                    <path d="M74.004801,10.6343419 C73.0279769,9.72712821 71.8173246,8.90205128 70.2540908,8.90205128 C67.3598751,8.90205128 65.7178228,11.2681197 65.7178228,15.6033504 C65.7178228,19.9412308 67.3598751,22.3030598 70.2540908,22.3030598 C72.3275431,22.3030598 72.9896186,21.2819145 74.004801,20.4939316 L74.004801,10.6343419 L74.004801,10.6343419 Z M78.8516139,25.8524274 L74.745695,25.8524274 L74.5123922,23.6469231 C72.7941487,25.3437094 71.1904547,26.2509231 69.000351,26.2509231 C63.608114,26.2509231 60.8694335,21.4408889 60.8694335,15.0506496 C60.8694335,10.0032137 63.7652256,4.95789744 69.000351,4.95789744 C70.6476579,4.95789744 72.9491584,5.94459829 73.9233552,7.24447863 L74.004801,7.24447863 L74.004801,0.414940171 L78.8516139,0.414940171 L78.8516139,25.8524274 L78.8516139,25.8524274 Z" id="Fill-20"></path>
                </g>
            </g>
        </g>
    </g>
</svg>